{
	"patcher" : 	{
		"fileversion" : 1,
		"appversion" : 		{
			"major" : 5,
			"minor" : 1,
			"revision" : 9
		}
,
		"rect" : [ 234.0, 44.0, 774.0, 765.0 ],
		"bglocked" : 0,
		"defrect" : [ 234.0, 44.0, 774.0, 765.0 ],
		"openrect" : [ 0.0, 0.0, 0.0, 0.0 ],
		"openinpresentation" : 1,
		"default_fontsize" : 12.0,
		"default_fontface" : 0,
		"default_fontname" : "Arial",
		"gridonopen" : 0,
		"gridsize" : [ 15.0, 15.0 ],
		"gridsnaponopen" : 0,
		"toolbarvisible" : 1,
		"boxanimatetime" : 200,
		"imprint" : 0,
		"enablehscroll" : 1,
		"enablevscroll" : 1,
		"devicewidth" : 0.0,
		"boxes" : [ 			{
				"box" : 				{
					"maxclass" : "newobj",
					"text" : "loadmess set",
					"outlettype" : [ "" ],
					"patching_rect" : [ 335.0, 183.0, 100.0, 20.0 ],
					"id" : "obj-2",
					"fontname" : "Arial",
					"numinlets" : 1,
					"fontsize" : 12.0,
					"numoutlets" : 1
				}

			}
, 			{
				"box" : 				{
					"maxclass" : "number",
					"outlettype" : [ "int", "bang" ],
					"patching_rect" : [ 441.0, 587.0, 50.0, 20.0 ],
					"id" : "obj-11",
					"fontname" : "Arial",
					"numinlets" : 1,
					"fontsize" : 12.0,
					"numoutlets" : 2
				}

			}
, 			{
				"box" : 				{
					"maxclass" : "comment",
					"text" : "force mono",
					"patching_rect" : [ 412.0, 470.0, 71.0, 20.0 ],
					"id" : "obj-14",
					"fontname" : "Arial",
					"presentation" : 1,
					"numinlets" : 1,
					"fontsize" : 12.0,
					"presentation_rect" : [ 185.0, 139.0, 71.0, 20.0 ],
					"numoutlets" : 0
				}

			}
, 			{
				"box" : 				{
					"maxclass" : "newobj",
					"text" : "1",
					"outlettype" : [ "int" ],
					"patching_rect" : [ 396.0, 526.0, 36.0, 20.0 ],
					"id" : "obj-16",
					"fontname" : "Arial",
					"numinlets" : 2,
					"fontsize" : 12.0,
					"numoutlets" : 1
				}

			}
, 			{
				"box" : 				{
					"maxclass" : "button",
					"outlettype" : [ "bang" ],
					"patching_rect" : [ 439.0, 525.0, 20.0, 20.0 ],
					"id" : "obj-75",
					"numinlets" : 1,
					"numoutlets" : 1
				}

			}
, 			{
				"box" : 				{
					"maxclass" : "newobj",
					"text" : "sel 1",
					"outlettype" : [ "bang", "" ],
					"patching_rect" : [ 395.0, 498.0, 54.0, 20.0 ],
					"id" : "obj-51",
					"fontname" : "Arial",
					"numinlets" : 2,
					"fontsize" : 12.0,
					"numoutlets" : 2
				}

			}
, 			{
				"box" : 				{
					"maxclass" : "newobj",
					"text" : "i",
					"outlettype" : [ "int" ],
					"patching_rect" : [ 441.0, 553.0, 39.0, 20.0 ],
					"id" : "obj-17",
					"fontname" : "Arial",
					"numinlets" : 2,
					"fontsize" : 12.0,
					"numoutlets" : 1
				}

			}
, 			{
				"box" : 				{
					"maxclass" : "toggle",
					"outlettype" : [ "int" ],
					"patching_rect" : [ 396.0, 470.0, 20.0, 20.0 ],
					"id" : "obj-18",
					"presentation" : 1,
					"numinlets" : 1,
					"presentation_rect" : [ 169.0, 139.0, 20.0, 20.0 ],
					"numoutlets" : 1
				}

			}
, 			{
				"box" : 				{
					"maxclass" : "newobj",
					"text" : "selector~ 2 1",
					"outlettype" : [ "signal" ],
					"patching_rect" : [ 438.0, 637.0, 100.0, 20.0 ],
					"id" : "obj-20",
					"fontname" : "Arial",
					"numinlets" : 3,
					"fontsize" : 12.0,
					"numoutlets" : 1
				}

			}
, 			{
				"box" : 				{
					"maxclass" : "outlet",
					"patching_rect" : [ 124.0, 703.0, 25.0, 25.0 ],
					"id" : "obj-22",
					"numinlets" : 1,
					"numoutlets" : 0,
					"comment" : ""
				}

			}
, 			{
				"box" : 				{
					"maxclass" : "outlet",
					"patching_rect" : [ 53.0, 702.0, 25.0, 25.0 ],
					"id" : "obj-19",
					"numinlets" : 1,
					"numoutlets" : 0,
					"comment" : ""
				}

			}
, 			{
				"box" : 				{
					"maxclass" : "message",
					"text" : "set $1",
					"outlettype" : [ "" ],
					"patching_rect" : [ 171.0, 706.0, 50.0, 18.0 ],
					"id" : "obj-1",
					"fontname" : "Arial",
					"numinlets" : 2,
					"fontsize" : 12.0,
					"numoutlets" : 1
				}

			}
, 			{
				"box" : 				{
					"maxclass" : "number",
					"outlettype" : [ "int", "bang" ],
					"minimum" : 0,
					"patching_rect" : [ 172.0, 732.0, 50.0, 20.0 ],
					"id" : "obj-6",
					"fontname" : "Arial",
					"presentation" : 1,
					"maximum" : 159,
					"bgcolor" : [ 1.0, 1.0, 1.0, 0.0 ],
					"bordercolor" : [ 0.501961, 0.501961, 0.501961, 0.043137 ],
					"numinlets" : 1,
					"fontsize" : 12.0,
					"presentation_rect" : [ 285.0, 226.0, 46.0, 20.0 ],
					"numoutlets" : 2
				}

			}
, 			{
				"box" : 				{
					"maxclass" : "slider",
					"outlettype" : [ "" ],
					"patching_rect" : [ 171.0, 629.0, 40.0, 67.0 ],
					"id" : "obj-8",
					"presentation" : 1,
					"size" : 158.0,
					"numinlets" : 1,
					"presentation_rect" : [ 299.0, 80.0, 13.0, 147.0 ],
					"numoutlets" : 1
				}

			}
, 			{
				"box" : 				{
					"maxclass" : "gain~",
					"outlettype" : [ "signal", "int" ],
					"patching_rect" : [ 123.0, 629.0, 41.0, 56.0 ],
					"id" : "obj-9",
					"presentation" : 1,
					"numinlets" : 2,
					"presentation_rect" : [ 311.0, 80.0, 25.0, 147.0 ],
					"numoutlets" : 2
				}

			}
, 			{
				"box" : 				{
					"maxclass" : "gain~",
					"outlettype" : [ "signal", "int" ],
					"patching_rect" : [ 52.0, 630.0, 41.0, 56.0 ],
					"id" : "obj-10",
					"presentation" : 1,
					"numinlets" : 2,
					"presentation_rect" : [ 274.0, 80.0, 25.0, 147.0 ],
					"numoutlets" : 2
				}

			}
, 			{
				"box" : 				{
					"maxclass" : "meter~",
					"outlettype" : [ "float" ],
					"patching_rect" : [ 98.0, 698.0, 19.0, 58.0 ],
					"id" : "obj-30",
					"presentation" : 1,
					"numinlets" : 1,
					"presentation_rect" : [ 335.0, 80.0, 13.0, 145.0 ],
					"numoutlets" : 1
				}

			}
, 			{
				"box" : 				{
					"maxclass" : "meter~",
					"outlettype" : [ "float" ],
					"patching_rect" : [ 15.0, 697.0, 19.0, 58.0 ],
					"id" : "obj-29",
					"presentation" : 1,
					"numinlets" : 1,
					"presentation_rect" : [ 262.0, 80.0, 13.0, 145.0 ],
					"numoutlets" : 1
				}

			}
, 			{
				"box" : 				{
					"maxclass" : "newobj",
					"text" : "loadbang",
					"outlettype" : [ "bang" ],
					"patching_rect" : [ 283.799683, 24.769653, 90.0, 20.0 ],
					"id" : "obj-12",
					"fontname" : "Arial",
					"numinlets" : 1,
					"fontsize" : 12.0,
					"numoutlets" : 1
				}

			}
, 			{
				"box" : 				{
					"maxclass" : "newobj",
					"varname" : "u548003112",
					"text" : "autopattr @autoname 0",
					"outlettype" : [ "", "", "", "" ],
					"patching_rect" : [ 283.799683, 48.769653, 151.587067, 20.0 ],
					"id" : "obj-13",
					"fontname" : "Arial",
					"numinlets" : 1,
					"fontsize" : 12.0,
					"numoutlets" : 4
				}

			}
, 			{
				"box" : 				{
					"maxclass" : "newobj",
					"text" : "p seekTime",
					"outlettype" : [ "" ],
					"patching_rect" : [ 72.0, 485.0, 113.0, 20.0 ],
					"id" : "obj-96",
					"fontname" : "Arial",
					"numinlets" : 3,
					"fontsize" : 12.0,
					"numoutlets" : 1,
					"patcher" : 					{
						"fileversion" : 1,
						"appversion" : 						{
							"major" : 5,
							"minor" : 1,
							"revision" : 9
						}
,
						"rect" : [ 25.0, 69.0, 266.0, 381.0 ],
						"bglocked" : 0,
						"defrect" : [ 25.0, 69.0, 266.0, 381.0 ],
						"openrect" : [ 0.0, 0.0, 0.0, 0.0 ],
						"openinpresentation" : 0,
						"default_fontsize" : 12.0,
						"default_fontface" : 0,
						"default_fontname" : "Arial",
						"gridonopen" : 0,
						"gridsize" : [ 15.0, 15.0 ],
						"gridsnaponopen" : 0,
						"toolbarvisible" : 1,
						"boxanimatetime" : 200,
						"imprint" : 0,
						"enablehscroll" : 1,
						"enablevscroll" : 1,
						"devicewidth" : 0.0,
						"boxes" : [ 							{
								"box" : 								{
									"maxclass" : "message",
									"text" : "seek $1",
									"outlettype" : [ "" ],
									"patching_rect" : [ 50.0, 271.0, 58.0, 18.0 ],
									"id" : "obj-30",
									"fontname" : "Arial",
									"numinlets" : 2,
									"fontsize" : 11.595187,
									"numoutlets" : 1
								}

							}
, 							{
								"box" : 								{
									"maxclass" : "newobj",
									"text" : "i",
									"outlettype" : [ "int" ],
									"patching_rect" : [ 50.0, 100.0, 64.0, 20.0 ],
									"id" : "obj-59",
									"fontname" : "Arial",
									"numinlets" : 2,
									"fontsize" : 12.0,
									"numoutlets" : 1
								}

							}
, 							{
								"box" : 								{
									"maxclass" : "newobj",
									"text" : "i",
									"outlettype" : [ "int" ],
									"patching_rect" : [ 131.0, 127.0, 64.0, 20.0 ],
									"id" : "obj-56",
									"fontname" : "Arial",
									"numinlets" : 2,
									"fontsize" : 12.0,
									"numoutlets" : 1
								}

							}
, 							{
								"box" : 								{
									"maxclass" : "number",
									"outlettype" : [ "int", "bang" ],
									"minimum" : 0,
									"patching_rect" : [ 50.0, 228.0, 101.0, 20.0 ],
									"id" : "obj-55",
									"fontname" : "Arial",
									"numinlets" : 1,
									"fontsize" : 12.0,
									"numoutlets" : 2
								}

							}
, 							{
								"box" : 								{
									"maxclass" : "newobj",
									"text" : "+ 0.",
									"outlettype" : [ "float" ],
									"patching_rect" : [ 50.0, 202.0, 100.0, 20.0 ],
									"id" : "obj-54",
									"fontname" : "Arial",
									"numinlets" : 2,
									"fontsize" : 12.0,
									"numoutlets" : 1
								}

							}
, 							{
								"box" : 								{
									"maxclass" : "newobj",
									"text" : "bondo",
									"outlettype" : [ "", "" ],
									"patching_rect" : [ 50.0, 177.0, 100.0, 20.0 ],
									"id" : "obj-53",
									"fontname" : "Arial",
									"numinlets" : 2,
									"fontsize" : 12.0,
									"numoutlets" : 2
								}

							}
, 							{
								"box" : 								{
									"maxclass" : "newobj",
									"text" : "* 1000.",
									"outlettype" : [ "float" ],
									"patching_rect" : [ 50.0, 152.0, 63.0, 20.0 ],
									"id" : "obj-51",
									"fontname" : "Arial",
									"numinlets" : 2,
									"fontsize" : 12.0,
									"numoutlets" : 1
								}

							}
, 							{
								"box" : 								{
									"maxclass" : "newobj",
									"text" : "* 60.",
									"outlettype" : [ "float" ],
									"patching_rect" : [ 50.0, 126.0, 51.0, 20.0 ],
									"id" : "obj-39",
									"fontname" : "Arial",
									"numinlets" : 2,
									"fontsize" : 12.0,
									"numoutlets" : 1
								}

							}
, 							{
								"box" : 								{
									"maxclass" : "newobj",
									"text" : "* 1000.",
									"outlettype" : [ "float" ],
									"patching_rect" : [ 131.0, 152.0, 63.0, 20.0 ],
									"id" : "obj-31",
									"fontname" : "Arial",
									"numinlets" : 2,
									"fontsize" : 12.0,
									"numoutlets" : 1
								}

							}
, 							{
								"box" : 								{
									"maxclass" : "inlet",
									"outlettype" : [ "bang" ],
									"patching_rect" : [ 49.5, 39.0, 25.0, 25.0 ],
									"id" : "obj-80",
									"numinlets" : 0,
									"numoutlets" : 1,
									"comment" : ""
								}

							}
, 							{
								"box" : 								{
									"maxclass" : "inlet",
									"outlettype" : [ "int" ],
									"patching_rect" : [ 95.0, 39.0, 25.0, 25.0 ],
									"id" : "obj-83",
									"numinlets" : 0,
									"numoutlets" : 1,
									"comment" : ""
								}

							}
, 							{
								"box" : 								{
									"maxclass" : "inlet",
									"outlettype" : [ "int" ],
									"patching_rect" : [ 176.0, 39.0, 25.0, 25.0 ],
									"id" : "obj-85",
									"numinlets" : 0,
									"numoutlets" : 1,
									"comment" : ""
								}

							}
, 							{
								"box" : 								{
									"maxclass" : "outlet",
									"patching_rect" : [ 50.0, 308.0, 25.0, 25.0 ],
									"id" : "obj-86",
									"numinlets" : 1,
									"numoutlets" : 0,
									"comment" : ""
								}

							}
 ],
						"lines" : [ 							{
								"patchline" : 								{
									"source" : [ "obj-30", 0 ],
									"destination" : [ "obj-86", 0 ],
									"hidden" : 0,
									"midpoints" : [  ]
								}

							}
, 							{
								"patchline" : 								{
									"source" : [ "obj-55", 0 ],
									"destination" : [ "obj-30", 0 ],
									"hidden" : 0,
									"midpoints" : [  ]
								}

							}
, 							{
								"patchline" : 								{
									"source" : [ "obj-39", 0 ],
									"destination" : [ "obj-51", 0 ],
									"hidden" : 0,
									"midpoints" : [  ]
								}

							}
, 							{
								"patchline" : 								{
									"source" : [ "obj-51", 0 ],
									"destination" : [ "obj-53", 0 ],
									"hidden" : 0,
									"midpoints" : [  ]
								}

							}
, 							{
								"patchline" : 								{
									"source" : [ "obj-31", 0 ],
									"destination" : [ "obj-53", 1 ],
									"hidden" : 0,
									"midpoints" : [  ]
								}

							}
, 							{
								"patchline" : 								{
									"source" : [ "obj-53", 0 ],
									"destination" : [ "obj-54", 0 ],
									"hidden" : 0,
									"midpoints" : [  ]
								}

							}
, 							{
								"patchline" : 								{
									"source" : [ "obj-53", 1 ],
									"destination" : [ "obj-54", 1 ],
									"hidden" : 0,
									"midpoints" : [  ]
								}

							}
, 							{
								"patchline" : 								{
									"source" : [ "obj-54", 0 ],
									"destination" : [ "obj-55", 0 ],
									"hidden" : 0,
									"midpoints" : [  ]
								}

							}
, 							{
								"patchline" : 								{
									"source" : [ "obj-56", 0 ],
									"destination" : [ "obj-31", 0 ],
									"hidden" : 0,
									"midpoints" : [  ]
								}

							}
, 							{
								"patchline" : 								{
									"source" : [ "obj-59", 0 ],
									"destination" : [ "obj-39", 0 ],
									"hidden" : 0,
									"midpoints" : [  ]
								}

							}
, 							{
								"patchline" : 								{
									"source" : [ "obj-80", 0 ],
									"destination" : [ "obj-59", 0 ],
									"hidden" : 0,
									"midpoints" : [  ]
								}

							}
, 							{
								"patchline" : 								{
									"source" : [ "obj-80", 0 ],
									"destination" : [ "obj-56", 0 ],
									"hidden" : 0,
									"midpoints" : [  ]
								}

							}
, 							{
								"patchline" : 								{
									"source" : [ "obj-83", 0 ],
									"destination" : [ "obj-59", 1 ],
									"hidden" : 0,
									"midpoints" : [  ]
								}

							}
, 							{
								"patchline" : 								{
									"source" : [ "obj-85", 0 ],
									"destination" : [ "obj-56", 1 ],
									"hidden" : 0,
									"midpoints" : [  ]
								}

							}
 ]
					}
,
					"saved_object_attributes" : 					{
						"default_fontface" : 0,
						"fontname" : "Arial",
						"default_fontname" : "Arial",
						"globalpatchername" : "",
						"default_fontsize" : 12.0,
						"fontface" : 0,
						"fontsize" : 12.0
					}

				}

			}
, 			{
				"box" : 				{
					"maxclass" : "comment",
					"text" : "Loop",
					"patching_rect" : [ 281.0, 528.0, 60.0, 20.0 ],
					"id" : "obj-34",
					"fontname" : "Arial",
					"presentation" : 1,
					"numinlets" : 1,
					"fontsize" : 12.0,
					"presentation_rect" : [ 177.0, 226.0, 38.0, 20.0 ],
					"numoutlets" : 0
				}

			}
, 			{
				"box" : 				{
					"maxclass" : "radiogroup",
					"outlettype" : [ "" ],
					"patching_rect" : [ 264.0, 529.0, 82.0, 18.0 ],
					"flagmode" : 1,
					"id" : "obj-36",
					"presentation" : 1,
					"activecolor" : [ 0.941176, 0.039216, 0.039216, 1.0 ],
					"bgcolor" : [ 1.0, 1.0, 1.0, 0.070588 ],
					"numinlets" : 1,
					"presentation_rect" : [ 159.0, 227.0, 57.0, 18.0 ],
					"numoutlets" : 1,
					"itemtype" : 1,
					"size" : 1,
					"values" : [ 1 ],
					"disabled" : [ 0 ]
				}

			}
, 			{
				"box" : 				{
					"maxclass" : "newobj",
					"text" : "loadmess 1",
					"outlettype" : [ "" ],
					"patching_rect" : [ 264.0, 503.0, 100.0, 20.0 ],
					"id" : "obj-62",
					"fontname" : "Arial",
					"numinlets" : 1,
					"fontsize" : 12.0,
					"numoutlets" : 1
				}

			}
, 			{
				"box" : 				{
					"maxclass" : "message",
					"text" : "loop $1",
					"outlettype" : [ "" ],
					"patching_rect" : [ 263.0, 553.0, 49.0, 18.0 ],
					"id" : "obj-71",
					"fontname" : "Arial",
					"numinlets" : 2,
					"fontsize" : 11.595187,
					"numoutlets" : 1
				}

			}
, 			{
				"box" : 				{
					"maxclass" : "playbar",
					"outlettype" : [ "", "int" ],
					"patching_rect" : [ 65.0, 537.0, 199.0, 16.0 ],
					"id" : "obj-32",
					"presentation" : 1,
					"numinlets" : 1,
					"presentation_rect" : [ 6.0, 163.0, 204.0, 16.0 ],
					"numoutlets" : 2
				}

			}
, 			{
				"box" : 				{
					"maxclass" : "comment",
					"text" : "ss",
					"patching_rect" : [ 177.0, 430.0, 22.0, 20.0 ],
					"id" : "obj-121",
					"fontname" : "Arial",
					"presentation" : 1,
					"numinlets" : 1,
					"fontsize" : 12.0,
					"presentation_rect" : [ 67.0, 226.0, 24.0, 20.0 ],
					"numoutlets" : 0
				}

			}
, 			{
				"box" : 				{
					"maxclass" : "comment",
					"text" : "mm",
					"patching_rect" : [ 115.0, 409.0, 30.0, 20.0 ],
					"id" : "obj-120",
					"fontname" : "Arial",
					"presentation" : 1,
					"numinlets" : 1,
					"fontsize" : 12.0,
					"presentation_rect" : [ 6.0, 226.0, 29.0, 20.0 ],
					"numoutlets" : 0
				}

			}
, 			{
				"box" : 				{
					"maxclass" : "message",
					"text" : "00:00:10.000",
					"outlettype" : [ "" ],
					"patching_rect" : [ 222.0, 453.0, 88.0, 18.0 ],
					"id" : "obj-115",
					"fontname" : "Arial",
					"presentation" : 1,
					"bgcolor" : [ 0.831373, 0.803922, 0.803922, 0.172549 ],
					"fontface" : 1,
					"numinlets" : 2,
					"fontsize" : 12.0,
					"presentation_rect" : [ 101.0, 53.0, 88.0, 18.0 ],
					"numoutlets" : 1
				}

			}
, 			{
				"box" : 				{
					"maxclass" : "newobj",
					"text" : "unpack 0 0 0 0",
					"outlettype" : [ "int", "int", "int", "int" ],
					"patching_rect" : [ 291.0, 407.0, 187.0, 18.0 ],
					"id" : "obj-112",
					"fontname" : "Arial",
					"color" : [ 0.7, 0.7, 0.7, 1.0 ],
					"numinlets" : 1,
					"fontsize" : 10.0,
					"numoutlets" : 4
				}

			}
, 			{
				"box" : 				{
					"maxclass" : "newobj",
					"text" : "translate ms hh:mm:ss",
					"outlettype" : [ "" ],
					"patching_rect" : [ 291.0, 385.0, 111.0, 18.0 ],
					"id" : "obj-113",
					"fontname" : "Arial",
					"color" : [ 0.7, 0.7, 0.7, 1.0 ],
					"numinlets" : 1,
					"fontsize" : 10.0,
					"numoutlets" : 1
				}

			}
, 			{
				"box" : 				{
					"maxclass" : "newobj",
					"text" : "combine @config clocktime @triggers 0",
					"outlettype" : [ "", "" ],
					"patching_rect" : [ 291.0, 429.0, 187.0, 18.0 ],
					"id" : "obj-114",
					"fontname" : "Arial",
					"color" : [ 0.7, 0.7, 0.7, 1.0 ],
					"numinlets" : 7,
					"fontsize" : 10.0,
					"numoutlets" : 2
				}

			}
, 			{
				"box" : 				{
					"maxclass" : "textbutton",
					"outlettype" : [ "", "", "int" ],
					"patching_rect" : [ 74.0, 50.0, 100.0, 20.0 ],
					"id" : "obj-107",
					"fontname" : "Arial",
					"presentation" : 1,
					"text" : "Open File",
					"numinlets" : 1,
					"fontsize" : 12.0,
					"presentation_rect" : [ 131.0, 6.0, 73.0, 20.0 ],
					"numoutlets" : 3
				}

			}
, 			{
				"box" : 				{
					"maxclass" : "newobj",
					"text" : "p ChoseRecording",
					"outlettype" : [ "", "" ],
					"patching_rect" : [ 74.0, 74.0, 110.0, 20.0 ],
					"id" : "obj-108",
					"fontname" : "Arial",
					"numinlets" : 1,
					"fontsize" : 12.0,
					"numoutlets" : 2,
					"patcher" : 					{
						"fileversion" : 1,
						"appversion" : 						{
							"major" : 5,
							"minor" : 1,
							"revision" : 9
						}
,
						"rect" : [ 25.0, 69.0, 507.0, 437.0 ],
						"bglocked" : 0,
						"defrect" : [ 25.0, 69.0, 507.0, 437.0 ],
						"openrect" : [ 0.0, 0.0, 0.0, 0.0 ],
						"openinpresentation" : 0,
						"default_fontsize" : 12.0,
						"default_fontface" : 0,
						"default_fontname" : "Arial",
						"gridonopen" : 0,
						"gridsize" : [ 15.0, 15.0 ],
						"gridsnaponopen" : 0,
						"toolbarvisible" : 1,
						"boxanimatetime" : 200,
						"imprint" : 0,
						"enablehscroll" : 1,
						"enablevscroll" : 1,
						"devicewidth" : 0.0,
						"boxes" : [ 							{
								"box" : 								{
									"maxclass" : "message",
									"text" : "set",
									"outlettype" : [ "" ],
									"patching_rect" : [ 186.0, 230.0, 50.0, 18.0 ],
									"id" : "obj-8",
									"fontname" : "Arial",
									"numinlets" : 2,
									"fontsize" : 12.0,
									"numoutlets" : 1
								}

							}
, 							{
								"box" : 								{
									"maxclass" : "message",
									"outlettype" : [ "" ],
									"patching_rect" : [ 95.0, 269.0, 333.0, 18.0 ],
									"id" : "obj-10",
									"fontname" : "Arial",
									"numinlets" : 2,
									"fontsize" : 12.0,
									"numoutlets" : 1
								}

							}
, 							{
								"box" : 								{
									"maxclass" : "newobj",
									"text" : "s fileNamePlay",
									"patching_rect" : [ 204.0, 128.0, 165.0, 20.0 ],
									"id" : "obj-5",
									"fontname" : "Arial",
									"numinlets" : 1,
									"fontsize" : 12.0,
									"numoutlets" : 0
								}

							}
, 							{
								"box" : 								{
									"maxclass" : "newobj",
									"text" : "del 500",
									"outlettype" : [ "bang" ],
									"patching_rect" : [ 96.0, 229.0, 57.0, 20.0 ],
									"id" : "obj-9",
									"fontname" : "Arial",
									"numinlets" : 2,
									"fontsize" : 12.0,
									"numoutlets" : 1
								}

							}
, 							{
								"box" : 								{
									"maxclass" : "newobj",
									"text" : "t b l l",
									"outlettype" : [ "bang", "", "" ],
									"patching_rect" : [ 98.0, 154.0, 328.0, 20.0 ],
									"id" : "obj-7",
									"fontname" : "Arial",
									"numinlets" : 1,
									"fontsize" : 12.0,
									"numoutlets" : 3
								}

							}
, 							{
								"box" : 								{
									"maxclass" : "outlet",
									"patching_rect" : [ 94.0, 341.0, 25.0, 25.0 ],
									"id" : "obj-4",
									"numinlets" : 1,
									"numoutlets" : 0,
									"comment" : ""
								}

							}
, 							{
								"box" : 								{
									"maxclass" : "outlet",
									"patching_rect" : [ 16.0, 342.0, 25.0, 25.0 ],
									"id" : "obj-3",
									"numinlets" : 1,
									"numoutlets" : 0,
									"comment" : ""
								}

							}
, 							{
								"box" : 								{
									"maxclass" : "inlet",
									"outlettype" : [ "" ],
									"patching_rect" : [ 98.0, 9.0, 25.0, 25.0 ],
									"id" : "obj-2",
									"numinlets" : 0,
									"numoutlets" : 1,
									"comment" : ""
								}

							}
, 							{
								"box" : 								{
									"maxclass" : "newobj",
									"text" : "prepend open",
									"outlettype" : [ "" ],
									"patching_rect" : [ 98.0, 127.0, 100.0, 20.0 ],
									"id" : "obj-1",
									"fontname" : "Arial",
									"numinlets" : 1,
									"fontsize" : 12.0,
									"numoutlets" : 1
								}

							}
, 							{
								"box" : 								{
									"maxclass" : "button",
									"outlettype" : [ "bang" ],
									"patching_rect" : [ 98.0, 47.0, 20.0, 20.0 ],
									"id" : "obj-25",
									"numinlets" : 1,
									"numoutlets" : 1
								}

							}
, 							{
								"box" : 								{
									"maxclass" : "button",
									"outlettype" : [ "bang" ],
									"patching_rect" : [ 187.0, 98.0, 20.0, 20.0 ],
									"id" : "obj-27",
									"numinlets" : 1,
									"numoutlets" : 1
								}

							}
, 							{
								"box" : 								{
									"maxclass" : "newobj",
									"text" : "opendialog",
									"outlettype" : [ "", "bang" ],
									"patching_rect" : [ 98.0, 72.0, 108.0, 20.0 ],
									"id" : "obj-28",
									"fontname" : "Arial",
									"numinlets" : 1,
									"fontsize" : 11.595187,
									"numoutlets" : 2
								}

							}
, 							{
								"box" : 								{
									"maxclass" : "comment",
									"text" : "choose a folder",
									"patching_rect" : [ 121.0, 48.0, 90.0, 20.0 ],
									"id" : "obj-30",
									"fontname" : "Arial",
									"numinlets" : 1,
									"fontsize" : 11.595187,
									"numoutlets" : 0
								}

							}
 ],
						"lines" : [ 							{
								"patchline" : 								{
									"source" : [ "obj-7", 2 ],
									"destination" : [ "obj-10", 1 ],
									"hidden" : 0,
									"midpoints" : [  ]
								}

							}
, 							{
								"patchline" : 								{
									"source" : [ "obj-9", 0 ],
									"destination" : [ "obj-10", 0 ],
									"hidden" : 0,
									"midpoints" : [  ]
								}

							}
, 							{
								"patchline" : 								{
									"source" : [ "obj-10", 0 ],
									"destination" : [ "obj-4", 0 ],
									"hidden" : 0,
									"midpoints" : [  ]
								}

							}
, 							{
								"patchline" : 								{
									"source" : [ "obj-1", 0 ],
									"destination" : [ "obj-7", 0 ],
									"hidden" : 0,
									"midpoints" : [  ]
								}

							}
, 							{
								"patchline" : 								{
									"source" : [ "obj-7", 1 ],
									"destination" : [ "obj-3", 0 ],
									"hidden" : 0,
									"midpoints" : [  ]
								}

							}
, 							{
								"patchline" : 								{
									"source" : [ "obj-7", 0 ],
									"destination" : [ "obj-9", 0 ],
									"hidden" : 0,
									"midpoints" : [  ]
								}

							}
, 							{
								"patchline" : 								{
									"source" : [ "obj-28", 0 ],
									"destination" : [ "obj-5", 0 ],
									"hidden" : 0,
									"midpoints" : [  ]
								}

							}
, 							{
								"patchline" : 								{
									"source" : [ "obj-28", 1 ],
									"destination" : [ "obj-27", 0 ],
									"hidden" : 0,
									"midpoints" : [  ]
								}

							}
, 							{
								"patchline" : 								{
									"source" : [ "obj-28", 0 ],
									"destination" : [ "obj-1", 0 ],
									"hidden" : 0,
									"midpoints" : [  ]
								}

							}
, 							{
								"patchline" : 								{
									"source" : [ "obj-25", 0 ],
									"destination" : [ "obj-28", 0 ],
									"hidden" : 0,
									"midpoints" : [  ]
								}

							}
, 							{
								"patchline" : 								{
									"source" : [ "obj-2", 0 ],
									"destination" : [ "obj-25", 0 ],
									"hidden" : 0,
									"midpoints" : [  ]
								}

							}
, 							{
								"patchline" : 								{
									"source" : [ "obj-8", 0 ],
									"destination" : [ "obj-10", 0 ],
									"hidden" : 0,
									"midpoints" : [  ]
								}

							}
 ]
					}
,
					"saved_object_attributes" : 					{
						"default_fontface" : 0,
						"fontname" : "Arial",
						"default_fontname" : "Arial",
						"globalpatchername" : "",
						"default_fontsize" : 12.0,
						"fontface" : 0,
						"fontsize" : 12.0
					}

				}

			}
, 			{
				"box" : 				{
					"maxclass" : "message",
					"text" : "max $1",
					"outlettype" : [ "" ],
					"patching_rect" : [ 115.0, 434.0, 50.0, 18.0 ],
					"id" : "obj-102",
					"fontname" : "Arial",
					"numinlets" : 2,
					"fontsize" : 12.0,
					"numoutlets" : 1
				}

			}
, 			{
				"box" : 				{
					"maxclass" : "comment",
					"text" : "sampletype",
					"patching_rect" : [ 359.0, 281.0, 68.0, 20.0 ],
					"id" : "obj-70",
					"fontname" : "Arial",
					"presentation" : 1,
					"numinlets" : 1,
					"fontsize" : 11.595187,
					"presentation_rect" : [ 15.0, 73.0, 68.0, 20.0 ],
					"numoutlets" : 0
				}

			}
, 			{
				"box" : 				{
					"maxclass" : "message",
					"text" : "int16",
					"outlettype" : [ "" ],
					"patching_rect" : [ 299.0, 281.0, 60.0, 18.0 ],
					"id" : "obj-72",
					"fontname" : "Arial",
					"presentation" : 1,
					"bgcolor" : [ 0.831373, 0.803922, 0.803922, 0.172549 ],
					"numinlets" : 2,
					"fontsize" : 12.0,
					"presentation_rect" : [ 131.0, 75.0, 52.0, 18.0 ],
					"numoutlets" : 1
				}

			}
, 			{
				"box" : 				{
					"maxclass" : "comment",
					"text" : "filename",
					"patching_rect" : [ 308.0, 241.0, 63.0, 20.0 ],
					"id" : "obj-79",
					"fontname" : "Arial",
					"numinlets" : 1,
					"fontsize" : 11.595187,
					"numoutlets" : 0
				}

			}
, 			{
				"box" : 				{
					"maxclass" : "message",
					"text" : "asdGen_morpher_test_A.wav",
					"outlettype" : [ "" ],
					"patching_rect" : [ 334.599976, 255.0, 205.0, 18.0 ],
					"id" : "obj-81",
					"fontname" : "Arial",
					"presentation" : 1,
					"numinlets" : 2,
					"fontsize" : 11.595187,
					"presentation_rect" : [ 6.0, 29.0, 205.0, 18.0 ],
					"numoutlets" : 1
				}

			}
, 			{
				"box" : 				{
					"maxclass" : "comment",
					"text" : "duration",
					"patching_rect" : [ 302.0, 308.0, 131.0, 20.0 ],
					"id" : "obj-82",
					"fontname" : "Arial",
					"presentation" : 1,
					"numinlets" : 1,
					"fontsize" : 11.595187,
					"presentation_rect" : [ 15.0, 51.0, 52.0, 20.0 ],
					"numoutlets" : 0
				}

			}
, 			{
				"box" : 				{
					"maxclass" : "comment",
					"text" : "sampling rate",
					"patching_rect" : [ 260.0, 333.0, 80.0, 20.0 ],
					"id" : "obj-87",
					"fontname" : "Arial",
					"presentation" : 1,
					"numinlets" : 1,
					"fontsize" : 11.595187,
					"presentation_rect" : [ 15.0, 93.0, 80.0, 20.0 ],
					"numoutlets" : 0
				}

			}
, 			{
				"box" : 				{
					"maxclass" : "comment",
					"text" : "sample size in bits",
					"patching_rect" : [ 217.0, 359.0, 105.0, 20.0 ],
					"id" : "obj-88",
					"fontname" : "Arial",
					"presentation" : 1,
					"numinlets" : 1,
					"fontsize" : 11.595187,
					"presentation_rect" : [ 15.0, 115.0, 105.0, 20.0 ],
					"numoutlets" : 0
				}

			}
, 			{
				"box" : 				{
					"maxclass" : "number",
					"outlettype" : [ "int", "bang" ],
					"triangle" : 0,
					"patching_rect" : [ 124.0, 385.0, 52.0, 20.0 ],
					"id" : "obj-89",
					"fontname" : "Arial",
					"presentation" : 1,
					"bgcolor" : [ 1.0, 1.0, 1.0, 0.396078 ],
					"bordercolor" : [ 0.501961, 0.501961, 0.501961, 0.0 ],
					"triscale" : 0.9,
					"numinlets" : 1,
					"fontsize" : 12.0,
					"ignoreclick" : 1,
					"cantchange" : 1,
					"presentation_rect" : [ 131.0, 138.0, 34.0, 20.0 ],
					"numoutlets" : 2
				}

			}
, 			{
				"box" : 				{
					"maxclass" : "number",
					"outlettype" : [ "int", "bang" ],
					"triangle" : 0,
					"patching_rect" : [ 167.0, 359.0, 52.0, 20.0 ],
					"id" : "obj-90",
					"fontname" : "Arial",
					"presentation" : 1,
					"bgcolor" : [ 1.0, 1.0, 1.0, 0.396078 ],
					"bordercolor" : [ 0.501961, 0.501961, 0.501961, 0.0 ],
					"triscale" : 0.9,
					"numinlets" : 1,
					"fontsize" : 12.0,
					"ignoreclick" : 1,
					"cantchange" : 1,
					"presentation_rect" : [ 131.0, 116.0, 34.0, 20.0 ],
					"numoutlets" : 2
				}

			}
, 			{
				"box" : 				{
					"maxclass" : "flonum",
					"outlettype" : [ "float", "bang" ],
					"triangle" : 0,
					"patching_rect" : [ 210.0, 333.0, 52.0, 20.0 ],
					"id" : "obj-91",
					"fontname" : "Arial",
					"presentation" : 1,
					"bgcolor" : [ 1.0, 1.0, 1.0, 0.396078 ],
					"bordercolor" : [ 0.501961, 0.501961, 0.501961, 0.0 ],
					"triscale" : 0.9,
					"numinlets" : 1,
					"fontsize" : 12.0,
					"ignoreclick" : 1,
					"cantchange" : 1,
					"presentation_rect" : [ 131.0, 94.0, 52.0, 20.0 ],
					"numoutlets" : 2
				}

			}
, 			{
				"box" : 				{
					"maxclass" : "flonum",
					"outlettype" : [ "float", "bang" ],
					"patching_rect" : [ 253.0, 307.0, 50.0, 20.0 ],
					"id" : "obj-92",
					"fontname" : "Arial",
					"triscale" : 0.9,
					"numinlets" : 1,
					"fontsize" : 11.595187,
					"numoutlets" : 2
				}

			}
, 			{
				"box" : 				{
					"maxclass" : "newobj",
					"text" : "sfinfo~",
					"outlettype" : [ "int", "int", "float", "float", "", "" ],
					"patching_rect" : [ 124.0, 220.0, 234.0, 20.0 ],
					"id" : "obj-93",
					"fontname" : "Arial",
					"numinlets" : 1,
					"fontsize" : 11.595187,
					"numoutlets" : 6
				}

			}
, 			{
				"box" : 				{
					"maxclass" : "comment",
					"text" : "number of channels",
					"patching_rect" : [ 175.0, 385.0, 112.0, 20.0 ],
					"id" : "obj-94",
					"fontname" : "Arial",
					"presentation" : 1,
					"numinlets" : 1,
					"fontsize" : 11.595187,
					"presentation_rect" : [ 15.0, 137.0, 112.0, 20.0 ],
					"numoutlets" : 0
				}

			}
, 			{
				"box" : 				{
					"maxclass" : "comment",
					"text" : "optional argument specifies file",
					"patching_rect" : [ 359.0, 220.0, 170.0, 20.0 ],
					"id" : "obj-95",
					"fontname" : "Arial",
					"numinlets" : 1,
					"fontsize" : 11.595187,
					"numoutlets" : 0
				}

			}
, 			{
				"box" : 				{
					"maxclass" : "newobj",
					"text" : "b",
					"outlettype" : [ "bang", "bang" ],
					"patching_rect" : [ 72.0, 433.0, 42.0, 20.0 ],
					"id" : "obj-84",
					"fontname" : "Arial",
					"numinlets" : 1,
					"fontsize" : 12.0,
					"numoutlets" : 2
				}

			}
, 			{
				"box" : 				{
					"maxclass" : "button",
					"outlettype" : [ "bang" ],
					"patching_rect" : [ 72.0, 408.0, 20.0, 20.0 ],
					"id" : "obj-63",
					"presentation" : 1,
					"numinlets" : 1,
					"presentation_rect" : [ 125.0, 226.0, 20.0, 20.0 ],
					"numoutlets" : 1
				}

			}
, 			{
				"box" : 				{
					"maxclass" : "number",
					"outlettype" : [ "int", "bang" ],
					"minimum" : 0,
					"patching_rect" : [ 119.0, 458.0, 46.0, 20.0 ],
					"id" : "obj-45",
					"fontname" : "Arial",
					"presentation" : 1,
					"maximum" : 0,
					"numinlets" : 1,
					"fontsize" : 12.0,
					"presentation_rect" : [ 32.0, 226.0, 36.0, 20.0 ],
					"numoutlets" : 2
				}

			}
, 			{
				"box" : 				{
					"maxclass" : "number",
					"outlettype" : [ "int", "bang" ],
					"minimum" : 0,
					"patching_rect" : [ 168.0, 457.0, 46.0, 20.0 ],
					"id" : "obj-38",
					"fontname" : "Arial",
					"presentation" : 1,
					"maximum" : 59,
					"numinlets" : 1,
					"fontsize" : 12.0,
					"presentation_rect" : [ 91.0, 226.0, 36.0, 20.0 ],
					"numoutlets" : 2
				}

			}
, 			{
				"box" : 				{
					"maxclass" : "comment",
					"text" : "PLAY SOUND FILE",
					"patching_rect" : [ 76.0, 24.0, 153.0, 20.0 ],
					"id" : "obj-60",
					"fontname" : "Arial",
					"presentation" : 1,
					"fontface" : 1,
					"numinlets" : 1,
					"fontsize" : 12.0,
					"presentation_rect" : [ 6.0, 6.0, 121.0, 20.0 ],
					"numoutlets" : 0
				}

			}
, 			{
				"box" : 				{
					"maxclass" : "message",
					"text" : "00:00:00.000",
					"outlettype" : [ "" ],
					"patching_rect" : [ 249.0, 739.0, 192.0, 39.0 ],
					"id" : "obj-57",
					"fontname" : "Arial",
					"presentation" : 1,
					"bgcolor" : [ 0.866667, 0.866667, 0.866667, 0.396078 ],
					"numinlets" : 2,
					"fontsize" : 30.0,
					"presentation_rect" : [ 6.0, 181.0, 205.0, 39.0 ],
					"numoutlets" : 1
				}

			}
, 			{
				"box" : 				{
					"maxclass" : "newobj",
					"text" : "unpack 0 0 0 0",
					"outlettype" : [ "int", "int", "int", "int" ],
					"patching_rect" : [ 249.0, 691.0, 187.0, 18.0 ],
					"id" : "obj-46",
					"fontname" : "Arial",
					"color" : [ 0.7, 0.7, 0.7, 1.0 ],
					"numinlets" : 1,
					"fontsize" : 10.0,
					"numoutlets" : 4
				}

			}
, 			{
				"box" : 				{
					"maxclass" : "newobj",
					"text" : "translate ms hh:mm:ss",
					"outlettype" : [ "" ],
					"patching_rect" : [ 249.0, 669.0, 111.0, 18.0 ],
					"id" : "obj-47",
					"fontname" : "Arial",
					"color" : [ 0.7, 0.7, 0.7, 1.0 ],
					"numinlets" : 1,
					"fontsize" : 10.0,
					"numoutlets" : 1
				}

			}
, 			{
				"box" : 				{
					"maxclass" : "newobj",
					"text" : "combine @config clocktime @triggers 0",
					"outlettype" : [ "", "" ],
					"patching_rect" : [ 249.0, 713.0, 187.0, 18.0 ],
					"id" : "obj-48",
					"fontname" : "Arial",
					"color" : [ 0.7, 0.7, 0.7, 1.0 ],
					"numinlets" : 7,
					"fontsize" : 10.0,
					"numoutlets" : 2
				}

			}
, 			{
				"box" : 				{
					"maxclass" : "number~",
					"outlettype" : [ "signal", "float" ],
					"mode" : 2,
					"patching_rect" : [ 270.0, 639.0, 140.0, 20.0 ],
					"id" : "obj-44",
					"fontname" : "Arial",
					"numinlets" : 2,
					"fontsize" : 11.595187,
					"sig" : 0.0,
					"numoutlets" : 2
				}

			}
, 			{
				"box" : 				{
					"maxclass" : "newobj",
					"text" : "loadmess 0",
					"outlettype" : [ "" ],
					"patching_rect" : [ 249.0, 620.0, 62.0, 18.0 ],
					"id" : "obj-50",
					"fontname" : "Arial",
					"color" : [ 0.7, 0.7, 0.7, 1.0 ],
					"numinlets" : 1,
					"fontsize" : 10.0,
					"numoutlets" : 1
				}

			}
, 			{
				"box" : 				{
					"maxclass" : "newobj",
					"text" : "sfplay~ 2 60000 1",
					"outlettype" : [ "signal", "signal", "signal", "bang" ],
					"patching_rect" : [ 57.0, 584.0, 213.0, 20.0 ],
					"id" : "obj-4",
					"fontname" : "Arial",
					"numinlets" : 2,
					"fontsize" : 12.0,
					"numoutlets" : 4,
					"save" : [ "#N", "sfplay~", "", 2, 60000, 1, "", ";" ]
				}

			}
, 			{
				"box" : 				{
					"maxclass" : "panel",
					"patching_rect" : [ 66.0, 15.0, 172.0, 151.0 ],
					"id" : "obj-33",
					"presentation" : 1,
					"bgcolor" : [ 0.698039, 0.8, 0.8, 0.627451 ],
					"numinlets" : 1,
					"presentation_rect" : [ 1.0, 0.0, 439.0, 254.0 ],
					"numoutlets" : 0
				}

			}
 ],
		"lines" : [ 			{
				"patchline" : 				{
					"source" : [ "obj-2", 0 ],
					"destination" : [ "obj-81", 0 ],
					"hidden" : 0,
					"midpoints" : [  ]
				}

			}
, 			{
				"patchline" : 				{
					"source" : [ "obj-108", 1 ],
					"destination" : [ "obj-93", 0 ],
					"hidden" : 0,
					"midpoints" : [  ]
				}

			}
, 			{
				"patchline" : 				{
					"source" : [ "obj-11", 0 ],
					"destination" : [ "obj-20", 0 ],
					"hidden" : 0,
					"midpoints" : [  ]
				}

			}
, 			{
				"patchline" : 				{
					"source" : [ "obj-20", 0 ],
					"destination" : [ "obj-9", 0 ],
					"hidden" : 0,
					"midpoints" : [  ]
				}

			}
, 			{
				"patchline" : 				{
					"source" : [ "obj-4", 0 ],
					"destination" : [ "obj-20", 2 ],
					"hidden" : 0,
					"midpoints" : [  ]
				}

			}
, 			{
				"patchline" : 				{
					"source" : [ "obj-4", 1 ],
					"destination" : [ "obj-20", 1 ],
					"hidden" : 0,
					"midpoints" : [  ]
				}

			}
, 			{
				"patchline" : 				{
					"source" : [ "obj-89", 0 ],
					"destination" : [ "obj-17", 1 ],
					"hidden" : 0,
					"midpoints" : [  ]
				}

			}
, 			{
				"patchline" : 				{
					"source" : [ "obj-16", 0 ],
					"destination" : [ "obj-11", 0 ],
					"hidden" : 0,
					"midpoints" : [  ]
				}

			}
, 			{
				"patchline" : 				{
					"source" : [ "obj-17", 0 ],
					"destination" : [ "obj-11", 0 ],
					"hidden" : 0,
					"midpoints" : [  ]
				}

			}
, 			{
				"patchline" : 				{
					"source" : [ "obj-51", 0 ],
					"destination" : [ "obj-16", 0 ],
					"hidden" : 0,
					"midpoints" : [  ]
				}

			}
, 			{
				"patchline" : 				{
					"source" : [ "obj-18", 0 ],
					"destination" : [ "obj-51", 0 ],
					"hidden" : 0,
					"midpoints" : [  ]
				}

			}
, 			{
				"patchline" : 				{
					"source" : [ "obj-75", 0 ],
					"destination" : [ "obj-17", 0 ],
					"hidden" : 0,
					"midpoints" : [  ]
				}

			}
, 			{
				"patchline" : 				{
					"source" : [ "obj-51", 1 ],
					"destination" : [ "obj-75", 0 ],
					"hidden" : 0,
					"midpoints" : [  ]
				}

			}
, 			{
				"patchline" : 				{
					"source" : [ "obj-9", 0 ],
					"destination" : [ "obj-30", 0 ],
					"hidden" : 0,
					"midpoints" : [  ]
				}

			}
, 			{
				"patchline" : 				{
					"source" : [ "obj-10", 0 ],
					"destination" : [ "obj-29", 0 ],
					"hidden" : 0,
					"midpoints" : [  ]
				}

			}
, 			{
				"patchline" : 				{
					"source" : [ "obj-9", 0 ],
					"destination" : [ "obj-22", 0 ],
					"hidden" : 0,
					"midpoints" : [  ]
				}

			}
, 			{
				"patchline" : 				{
					"source" : [ "obj-10", 0 ],
					"destination" : [ "obj-19", 0 ],
					"hidden" : 0,
					"midpoints" : [  ]
				}

			}
, 			{
				"patchline" : 				{
					"source" : [ "obj-4", 2 ],
					"destination" : [ "obj-44", 0 ],
					"hidden" : 0,
					"midpoints" : [  ]
				}

			}
, 			{
				"patchline" : 				{
					"source" : [ "obj-108", 0 ],
					"destination" : [ "obj-4", 0 ],
					"hidden" : 0,
					"color" : [ 0.054902, 0.07451, 0.847059, 1.0 ],
					"midpoints" : [  ]
				}

			}
, 			{
				"patchline" : 				{
					"source" : [ "obj-32", 0 ],
					"destination" : [ "obj-4", 0 ],
					"hidden" : 0,
					"midpoints" : [  ]
				}

			}
, 			{
				"patchline" : 				{
					"source" : [ "obj-71", 0 ],
					"destination" : [ "obj-4", 0 ],
					"hidden" : 0,
					"midpoints" : [  ]
				}

			}
, 			{
				"patchline" : 				{
					"source" : [ "obj-96", 0 ],
					"destination" : [ "obj-4", 0 ],
					"hidden" : 0,
					"midpoints" : [  ]
				}

			}
, 			{
				"patchline" : 				{
					"source" : [ "obj-84", 0 ],
					"destination" : [ "obj-96", 0 ],
					"hidden" : 0,
					"midpoints" : [  ]
				}

			}
, 			{
				"patchline" : 				{
					"source" : [ "obj-45", 0 ],
					"destination" : [ "obj-96", 1 ],
					"hidden" : 0,
					"midpoints" : [  ]
				}

			}
, 			{
				"patchline" : 				{
					"source" : [ "obj-38", 0 ],
					"destination" : [ "obj-96", 2 ],
					"hidden" : 0,
					"midpoints" : [  ]
				}

			}
, 			{
				"patchline" : 				{
					"source" : [ "obj-36", 0 ],
					"destination" : [ "obj-71", 0 ],
					"hidden" : 0,
					"midpoints" : [  ]
				}

			}
, 			{
				"patchline" : 				{
					"source" : [ "obj-62", 0 ],
					"destination" : [ "obj-36", 0 ],
					"hidden" : 0,
					"midpoints" : [  ]
				}

			}
, 			{
				"patchline" : 				{
					"source" : [ "obj-112", 1 ],
					"destination" : [ "obj-102", 0 ],
					"hidden" : 0,
					"midpoints" : [  ]
				}

			}
, 			{
				"patchline" : 				{
					"source" : [ "obj-114", 0 ],
					"destination" : [ "obj-115", 1 ],
					"hidden" : 0,
					"midpoints" : [  ]
				}

			}
, 			{
				"patchline" : 				{
					"source" : [ "obj-92", 0 ],
					"destination" : [ "obj-113", 0 ],
					"hidden" : 0,
					"midpoints" : [  ]
				}

			}
, 			{
				"patchline" : 				{
					"source" : [ "obj-113", 0 ],
					"destination" : [ "obj-112", 0 ],
					"hidden" : 0,
					"midpoints" : [  ]
				}

			}
, 			{
				"patchline" : 				{
					"source" : [ "obj-112", 3 ],
					"destination" : [ "obj-114", 6 ],
					"hidden" : 0,
					"midpoints" : [  ]
				}

			}
, 			{
				"patchline" : 				{
					"source" : [ "obj-112", 2 ],
					"destination" : [ "obj-114", 4 ],
					"hidden" : 0,
					"midpoints" : [  ]
				}

			}
, 			{
				"patchline" : 				{
					"source" : [ "obj-112", 1 ],
					"destination" : [ "obj-114", 2 ],
					"hidden" : 0,
					"midpoints" : [  ]
				}

			}
, 			{
				"patchline" : 				{
					"source" : [ "obj-112", 0 ],
					"destination" : [ "obj-114", 0 ],
					"hidden" : 0,
					"midpoints" : [  ]
				}

			}
, 			{
				"patchline" : 				{
					"source" : [ "obj-107", 0 ],
					"destination" : [ "obj-108", 0 ],
					"hidden" : 0,
					"midpoints" : [  ]
				}

			}
, 			{
				"patchline" : 				{
					"source" : [ "obj-102", 0 ],
					"destination" : [ "obj-45", 0 ],
					"hidden" : 0,
					"midpoints" : [  ]
				}

			}
, 			{
				"patchline" : 				{
					"source" : [ "obj-93", 3 ],
					"destination" : [ "obj-92", 0 ],
					"hidden" : 0,
					"midpoints" : [  ]
				}

			}
, 			{
				"patchline" : 				{
					"source" : [ "obj-93", 2 ],
					"destination" : [ "obj-91", 0 ],
					"hidden" : 0,
					"midpoints" : [  ]
				}

			}
, 			{
				"patchline" : 				{
					"source" : [ "obj-93", 1 ],
					"destination" : [ "obj-90", 0 ],
					"hidden" : 0,
					"midpoints" : [  ]
				}

			}
, 			{
				"patchline" : 				{
					"source" : [ "obj-93", 0 ],
					"destination" : [ "obj-89", 0 ],
					"hidden" : 0,
					"midpoints" : [  ]
				}

			}
, 			{
				"patchline" : 				{
					"source" : [ "obj-93", 4 ],
					"destination" : [ "obj-72", 1 ],
					"hidden" : 0,
					"midpoints" : [ 305.5, 277.0, 349.5, 277.0 ]
				}

			}
, 			{
				"patchline" : 				{
					"source" : [ "obj-93", 5 ],
					"destination" : [ "obj-81", 1 ],
					"hidden" : 0,
					"midpoints" : [ 348.5, 248.0, 530.099976, 248.0 ]
				}

			}
, 			{
				"patchline" : 				{
					"source" : [ "obj-84", 1 ],
					"destination" : [ "obj-45", 0 ],
					"hidden" : 0,
					"midpoints" : [  ]
				}

			}
, 			{
				"patchline" : 				{
					"source" : [ "obj-84", 1 ],
					"destination" : [ "obj-38", 0 ],
					"hidden" : 0,
					"midpoints" : [  ]
				}

			}
, 			{
				"patchline" : 				{
					"source" : [ "obj-63", 0 ],
					"destination" : [ "obj-84", 0 ],
					"hidden" : 0,
					"midpoints" : [  ]
				}

			}
, 			{
				"patchline" : 				{
					"source" : [ "obj-48", 0 ],
					"destination" : [ "obj-57", 1 ],
					"hidden" : 0,
					"midpoints" : [  ]
				}

			}
, 			{
				"patchline" : 				{
					"source" : [ "obj-44", 1 ],
					"destination" : [ "obj-47", 0 ],
					"hidden" : 0,
					"midpoints" : [  ]
				}

			}
, 			{
				"patchline" : 				{
					"source" : [ "obj-50", 0 ],
					"destination" : [ "obj-47", 0 ],
					"hidden" : 0,
					"midpoints" : [  ]
				}

			}
, 			{
				"patchline" : 				{
					"source" : [ "obj-46", 0 ],
					"destination" : [ "obj-48", 0 ],
					"hidden" : 0,
					"midpoints" : [  ]
				}

			}
, 			{
				"patchline" : 				{
					"source" : [ "obj-46", 1 ],
					"destination" : [ "obj-48", 2 ],
					"hidden" : 0,
					"midpoints" : [  ]
				}

			}
, 			{
				"patchline" : 				{
					"source" : [ "obj-46", 2 ],
					"destination" : [ "obj-48", 4 ],
					"hidden" : 0,
					"midpoints" : [  ]
				}

			}
, 			{
				"patchline" : 				{
					"source" : [ "obj-46", 3 ],
					"destination" : [ "obj-48", 6 ],
					"hidden" : 0,
					"midpoints" : [  ]
				}

			}
, 			{
				"patchline" : 				{
					"source" : [ "obj-47", 0 ],
					"destination" : [ "obj-46", 0 ],
					"hidden" : 0,
					"midpoints" : [  ]
				}

			}
, 			{
				"patchline" : 				{
					"source" : [ "obj-12", 0 ],
					"destination" : [ "obj-13", 0 ],
					"hidden" : 0,
					"midpoints" : [  ]
				}

			}
, 			{
				"patchline" : 				{
					"source" : [ "obj-8", 0 ],
					"destination" : [ "obj-10", 0 ],
					"hidden" : 0,
					"midpoints" : [  ]
				}

			}
, 			{
				"patchline" : 				{
					"source" : [ "obj-8", 0 ],
					"destination" : [ "obj-9", 0 ],
					"hidden" : 0,
					"midpoints" : [  ]
				}

			}
, 			{
				"patchline" : 				{
					"source" : [ "obj-8", 0 ],
					"destination" : [ "obj-1", 0 ],
					"hidden" : 0,
					"midpoints" : [  ]
				}

			}
, 			{
				"patchline" : 				{
					"source" : [ "obj-1", 0 ],
					"destination" : [ "obj-6", 0 ],
					"hidden" : 0,
					"midpoints" : [  ]
				}

			}
, 			{
				"patchline" : 				{
					"source" : [ "obj-6", 0 ],
					"destination" : [ "obj-8", 0 ],
					"hidden" : 0,
					"midpoints" : [ 181.5, 761.0, 233.0, 761.0, 233.0, 620.0, 180.5, 620.0 ]
				}

			}
, 			{
				"patchline" : 				{
					"source" : [ "obj-4", 0 ],
					"destination" : [ "obj-10", 0 ],
					"hidden" : 0,
					"midpoints" : [  ]
				}

			}
 ]
	}

}
